<?xml version="1.0" encoding="utf-8"?>
<!-- Generator: Adobe Illustrator 27.5.0, SVG Export Plug-In . SVG Version: 6.00 Build 0)  -->
<svg version="1.1" id="illustration" xmlns="http://www.w3.org/2000/svg" xmlns:xlink="http://www.w3.org/1999/xlink" x="0px"
	 y="0px" viewBox="0 0 1200 800" style="enable-background:new 0 0 1200 800;" xml:space="preserve">
<g>
	<g>
		
			<linearGradient id="SVGID_1_" gradientUnits="userSpaceOnUse" x1="-3088.7427" y1="302.8092" x2="-4028.4009" y2="306.3549" gradientTransform="matrix(-0.9998 -0.0186 -0.0186 0.9998 -2804.0332 11.4659)">
			<stop  offset="0" style="stop-color:#B37CFF"/>
			<stop  offset="1" style="stop-color:#F895E7"/>
		</linearGradient>
		<path style="opacity:0.26;fill:url(#SVGID_1_);" d="M185.434,419.99l20.708-23.648c0,0,92.977-82.229,96.289-175.016
			c3.311-92.787,44.482-105.259,143.005-111.087c83.296-4.927,179.581-18.896,256.973,33.761
			c33.964,23.108,74.161,34.854,114.918,33.449l89.831-3.097c42.859-1.477,85.037,11.549,119.888,37.136
			c51.665,37.932,107.302,107.757,84.604,226.514c-3.854,20.165-6.291,41.304-6.674,61.845l-0.94,50.458
			c-0.825,44.313-35.416,80.086-78.631,81.032L351.161,646.1c-69.315,1.517-135.949-27.056-183.568-78.677
			c-12.698-13.765-19.588-32.096-19.235-51.05C149.021,480.736,162.2,446.523,185.434,419.99z"/>
		
			<linearGradient id="SVGID_00000083770177714021908330000004900001437988543667_" gradientUnits="userSpaceOnUse" x1="-3110.4924" y1="295.0782" x2="-3995.1216" y2="298.4162" gradientTransform="matrix(-0.9998 -0.0186 -0.019 1.0182 -2804.542 14.8075)">
			<stop  offset="0" style="stop-color:#B37CFF"/>
			<stop  offset="1" style="stop-color:#F895E7"/>
		</linearGradient>
		<path style="opacity:0.6;fill:url(#SVGID_00000083770177714021908330000004900001437988543667_);" d="M212.076,417.537
			l19.474-21.739c0,0,87.446-75.582,90.525-160.91c3.079-85.327,41.81-96.781,134.504-102.101
			c78.368-4.498,168.953-17.306,241.789,31.148c31.964,21.264,69.789,32.082,108.135,30.806l84.517-2.813
			c40.324-1.342,80.012,10.655,112.812,34.199c48.625,34.903,101.653,99.15,80.344,208.351c-3.618,18.542-5.249,37.993-5.6,56.883
			l-0.864,46.402c-0.759,40.751-33.944,73.623-74.603,74.476l-634.69,13.304c-65.215,1.368-128.083-24.938-172.906-72.428
			c-11.953-12.664-18.524-29.526-18.2-46.956C177.922,473.387,190.226,441.928,212.076,417.537z"/>
	</g>
	<g>
		
			<linearGradient id="SVGID_00000054972386182774428390000005627344767139225786_" gradientUnits="userSpaceOnUse" x1="-3266.3218" y1="527.7014" x2="-3339.7471" y2="167.082" gradientTransform="matrix(-0.9951 -0.0989 -0.0989 0.9951 -2246.4299 -351.6871)">
			<stop  offset="0" style="stop-color:#18459F"/>
			<stop  offset="1" style="stop-color:#2874B5"/>
		</linearGradient>
		<path style="fill:url(#SVGID_00000054972386182774428390000005627344767139225786_);" d="M1042.849,135.756
			c6.237,50.171,37.436,359.544-127.105,458.263c-4.982,2.989-11.373-0.339-11.793-6.133c-2.67-36.874-4.337-154.051,63.339-292.347
			c48.828-99.78,66.726-144.761,72.368-160.149C1040.256,133.761,1042.635,134.034,1042.849,135.756z"/>
		<path style="fill:#24286C;" d="M903.949,589.886c-0.323,0-0.65-0.078-0.954-0.243c-0.97-0.527-1.329-1.742-0.801-2.713
			c43.233-79.48,72.872-166.532,90.124-225.564c19.15-65.525,27.977-113.143,27.88-117.078c-0.18-0.98,0.396-1.963,1.37-2.268
			c1.057-0.331,2.176,0.256,2.506,1.311c0.894,2.856-8.606,52.7-27.283,116.982c-17.377,59.81-47.286,148.01-91.083,228.529
			C905.345,589.508,904.659,589.886,903.949,589.886z"/>
	</g>
	<g>
		
			<linearGradient id="SVGID_00000007389761080626291250000009565250568967176354_" gradientUnits="userSpaceOnUse" x1="121.0819" y1="-566.8085" x2="223.3624" y2="-566.8085" gradientTransform="matrix(0.8007 0.5991 -0.5991 0.8007 556.2118 874.5885)">
			<stop  offset="0" style="stop-color:#2B3582"/>
			<stop  offset="1" style="stop-color:#150E42"/>
		</linearGradient>
		<path style="fill:url(#SVGID_00000007389761080626291250000009565250568967176354_);" d="M931.24,610.581
			c38.769,7.45,153.263,12.12,195.467-177.891c1.198-5.395-5.517-8.892-9.224-4.793c-17.365,19.199-48.253,51.839-74.496,61.883
			c-81.308,31.118-110.742,81.176-120.454,104.622C919.656,601.345,923.859,609.162,931.24,610.581z"/>
		<path style="fill:#2A6FAE;" d="M927.49,605.566c-0.867,0-1.665-0.568-1.919-1.442c-0.309-1.061,0.301-2.171,1.362-2.48
			c56.615-16.464,98.175-48.132,123.071-71.8c26.963-25.634,40.673-47.588,40.809-47.807c0.581-0.94,1.813-1.228,2.753-0.649
			c0.939,0.581,1.229,1.814,0.648,2.753c-0.138,0.224-14.121,22.617-41.454,48.602c-25.217,23.973-67.323,56.054-124.709,72.742
			C927.863,605.54,927.675,605.566,927.49,605.566z"/>
	</g>
	<g>
		<g>
			
				<linearGradient id="SVGID_00000010283990684679170770000003268252524095084674_" gradientUnits="userSpaceOnUse" x1="240.5991" y1="268.0874" x2="432.9761" y2="268.0874">
				<stop  offset="0" style="stop-color:#18459F"/>
				<stop  offset="1" style="stop-color:#2874B5"/>
			</linearGradient>
			<path style="fill:url(#SVGID_00000010283990684679170770000003268252524095084674_);" d="M389.005,459.643
				c0,0,3.15-82.622-34.6-105.289c-37.751-22.667-109.933-37.534-110.945-156.251c-0.592-69.502-1.876-99.904-2.839-113.167
				c-0.375-5.173,4.276-9.278,9.359-8.245C285.936,84,402.657,113.635,426.067,193.928
				C453.819,289.116,389.005,459.643,389.005,459.643z"/>
			<path style="fill:#222669;" d="M277.204,110.317c0,0,1.026,0.938,2.919,2.764c1.872,1.826,4.617,4.505,7.962,8.051
				c3.353,3.539,7.377,7.884,11.836,13.005c2.237,2.554,4.615,5.277,7.034,8.219c1.211,1.471,2.452,2.979,3.723,4.524
				c1.239,1.57,2.506,3.177,3.8,4.818c1.292,1.644,2.61,3.322,3.954,5.032c1.303,1.741,2.63,3.515,3.98,5.319
				c1.348,1.807,2.719,3.645,4.11,5.51c1.347,1.899,2.714,3.826,4.1,5.781c1.38,1.959,2.806,3.927,4.199,5.953
				c1.368,2.044,2.753,4.113,4.153,6.204c1.38,2.105,2.812,4.209,4.189,6.377c1.355,2.183,2.723,4.387,4.103,6.609
				c1.37,2.228,2.792,4.451,4.151,6.734c1.332,2.299,2.673,4.615,4.023,6.945c1.347,2.332,2.714,4.672,4.042,7.05
				c1.278,2.405,2.563,4.822,3.852,7.249c1.289,2.427,2.584,4.864,3.883,7.308c1.215,2.487,2.434,4.982,3.655,7.481
				c1.219,2.501,2.441,5.007,3.664,7.515l0.459,0.941l0.138,0.292l0.104,0.238l0.209,0.476l0.836,1.904l1.673,3.809
				c4.427,10.38,8.146,21.015,11.187,31.637c3.022,10.636,5.345,21.272,7.108,31.635c1.781,10.363,2.865,20.472,3.583,30.065
				c0.702,9.597,0.971,18.691,0.955,27.08c0.007,8.39-0.377,16.074-0.857,22.87c-0.485,6.796-1.102,12.705-1.706,17.561
				c-0.594,4.858-1.236,8.655-1.682,11.248c-0.24,1.297-0.424,2.292-0.548,2.963c-0.138,0.684-0.21,1.037-0.21,1.037
				c-0.236,1.167-1.373,1.922-2.541,1.686c-1.136-0.229-1.882-1.313-1.703-2.447l0.01-0.061c0,0,0.052-0.329,0.154-0.968
				c0.093-0.655,0.232-1.628,0.412-2.897c0.348-2.547,0.768-6.305,1.231-11.097c0.453-4.793,0.888-10.63,1.168-17.334
				c0.286-6.704,0.38-14.275,0.287-22.527c-0.116-8.252-0.524-17.186-1.365-26.596c-0.824-9.412-2.151-19.286-3.911-29.423
				c-1.776-10.134-4.129-20.51-7.105-30.876c-2.953-10.379-6.559-20.733-10.818-30.772l-1.667-3.812l-0.833-1.905l-0.208-0.476
				l-0.188-0.416l-0.444-0.931c-1.183-2.484-2.365-4.966-3.545-7.443c-1.182-2.477-2.361-4.948-3.536-7.413
				c-1.259-2.423-2.515-4.839-3.766-7.246c-1.251-2.407-2.496-4.805-3.736-7.19c-1.309-2.349-2.611-4.686-3.905-7.008
				c-1.293-2.324-2.579-4.634-3.855-6.928c-1.304-2.277-2.671-4.497-3.988-6.722c-1.326-2.22-2.641-4.421-3.943-6.601
				c-1.324-2.167-2.705-4.27-4.033-6.375c-1.326-2.107-2.637-4.192-3.932-6.251c-1.321-2.043-2.677-4.027-3.987-6.004
				c-1.317-1.973-2.615-3.919-3.895-5.835c-1.325-1.885-2.63-3.742-3.913-5.568c-1.286-1.825-2.551-3.618-3.792-5.379
				c-1.283-1.731-2.541-3.429-3.774-5.092c-1.236-1.662-2.446-3.289-3.629-4.88c-1.215-1.566-2.402-3.095-3.559-4.587
				c-2.271-3.019-4.509-5.815-6.617-8.441c-4.2-5.264-8.002-9.74-11.173-13.389c-3.181-3.64-5.715-6.469-7.471-8.369
				c-1.749-1.887-2.717-2.877-2.717-2.877c-0.473-0.483-0.464-1.258,0.019-1.73c0.466-0.456,1.203-0.464,1.678-0.031
				L277.204,110.317z"/>
		</g>
		<g>
			
				<linearGradient id="SVGID_00000041253985691695466940000007625129351887883672_" gradientUnits="userSpaceOnUse" x1="124.3142" y1="445.7753" x2="319.0739" y2="445.7753">
				<stop  offset="0" style="stop-color:#2B3582"/>
				<stop  offset="1" style="stop-color:#150E42"/>
			</linearGradient>
			<path style="fill:url(#SVGID_00000041253985691695466940000007625129351887883672_);" d="M318.657,645.946
				c5.171,3.985-39.571-83.849-34.248-206.42c2.508-57.759,16.654-127.887-9.724-161.387
				c-21.953-27.881-115.11-32.049-145.743-32.663c-3.828-0.077-6.019,4.333-3.637,7.33c11.744,14.777,36.336,48.999,38.478,78.883
				c2.824,39.389,33.436,70.305,63.855,83.174c30.418,12.869,46.799,22.686,51.933,76.563
				C284.705,545.302,303.964,634.623,318.657,645.946z"/>
			<path style="fill:#1F5AA9;" d="M167.246,269.824c0,0,0.904,0.197,2.55,0.636c1.649,0.446,4.063,1.116,7.08,2.135
				c3.018,1.016,6.654,2.342,10.746,4.066c4.087,1.729,8.656,3.811,13.457,6.445c4.807,2.617,9.888,5.709,15.012,9.359
				c5.116,3.654,10.301,7.846,15.199,12.694c4.895,4.844,9.536,10.302,13.612,16.31c4.06,6.016,7.531,12.582,10.225,19.458
				l0.978,2.591l0.488,1.296l0.414,1.32c0.539,1.762,1.102,3.522,1.594,5.288c0.926,3.481,1.848,6.949,2.762,10.389
				c0.886,3.457,1.765,6.886,2.634,10.274c0.824,3.397,1.637,6.753,2.438,10.054c1.573,6.608,3.035,13.009,4.334,19.099
				c1.311,6.087,2.491,11.855,3.512,17.192c0.502,2.671,0.983,5.229,1.441,7.663c0.422,2.441,0.823,4.756,1.2,6.931
				c0.725,4.356,1.335,8.157,1.805,11.294c0.483,3.134,0.798,5.607,1.013,7.294c0.206,1.692,0.316,2.595,0.316,2.595
				c0.056,0.461-0.272,0.881-0.733,0.937c-0.444,0.054-0.85-0.249-0.929-0.683l-0.004-0.021c0,0-0.16-0.885-0.459-2.546
				c-0.318-1.662-0.785-4.099-1.379-7.201c-1.187-6.205-3.072-15.035-5.414-25.61c-1.197-5.283-2.495-11.004-3.923-17.042
				c-1.445-6.035-2.983-12.395-4.623-18.962c-1.688-6.552-3.433-13.323-5.205-20.203c-0.926-3.437-1.858-6.902-2.795-10.38
				c-0.479-1.703-1.032-3.377-1.532-5.074l-0.389-1.268l-0.462-1.243l-0.924-2.489c-5.074-13.236-13.262-25.151-22.627-34.636
				c-4.675-4.76-9.577-9.001-14.493-12.681c-4.912-3.687-9.812-6.841-14.467-9.528c-4.664-2.671-9.043-4.954-13.01-6.803
				c-3.963-1.859-7.498-3.311-10.436-4.432c-2.94-1.115-5.272-1.937-6.875-2.451c-1.606-0.521-2.458-0.754-2.458-0.754
				c-0.36-0.099-0.572-0.47-0.473-0.83c0.095-0.348,0.446-0.557,0.794-0.482L167.246,269.824z"/>
		</g>
		<g>
			
				<linearGradient id="SVGID_00000093143360912553825010000014177688610462304703_" gradientUnits="userSpaceOnUse" x1="73.1523" y1="545.5037" x2="312.3722" y2="545.5037">
				<stop  offset="0" style="stop-color:#18459F"/>
				<stop  offset="1" style="stop-color:#2874B5"/>
			</linearGradient>
			<path style="fill:url(#SVGID_00000093143360912553825010000014177688610462304703_);" d="M312.016,661.591
				c3.478,1.834-19.593-37.877-21.363-72.862c-1.77-34.986-9.663-94.699-39.833-130.418s-63.209-38.979-104.84-6.506
				c-34.693,27.06-56.333,40.717-69.024,43.255c-3.142,0.629-4.746,4.176-3.217,6.992c8.14,14.99,31.154,49.423,69.795,46.999
				c49.289-3.092,109.024-35.134,127.23-8.404c18.206,26.729,15.869,41.685,16.428,54.353
				C287.75,607.667,288.997,649.455,312.016,661.591z"/>
			<path style="fill:#222669;" d="M160.084,494.824c0,0,0.513-0.498,1.485-1.374c0.974-0.883,2.423-2.15,4.343-3.671
				c1.915-1.527,4.284-3.329,7.091-5.28c2.805-1.955,6.086-3.999,9.78-6.052c3.705-2.031,7.855-4.021,12.44-5.709
				c4.586-1.665,9.612-3.057,14.999-3.648c1.339-0.186,2.714-0.205,4.088-0.293c0.69-0.012,1.385,0.004,2.081,0.006l1.047,0.009
				l1.05,0.075c0.701,0.056,1.406,0.097,2.11,0.167c0.702,0.103,1.406,0.206,2.112,0.309c0.709,0.083,1.406,0.256,2.108,0.412
				c0.718,0.178,1.366,0.27,2.146,0.523c5.157,1.449,10.722,3.591,15.758,6.185c5.034,2.738,9.713,6.099,13.883,9.894
				c0.987,1.003,1.969,2.002,2.947,2.996c0.479,0.505,0.992,0.979,1.439,1.507l1.318,1.595c0.864,1.069,1.771,2.097,2.581,3.181
				c0.766,1.115,1.527,2.223,2.281,3.321c0.374,0.55,0.747,1.098,1.118,1.643c0.33,0.569,0.659,1.136,0.987,1.7
				c0.653,1.128,1.3,2.245,1.941,3.35c1.203,2.247,2.238,4.515,3.319,6.682c0.922,2.234,1.82,4.407,2.688,6.508
				c0.786,2.129,1.468,4.212,2.163,6.196c0.169,0.498,0.335,0.99,0.5,1.477c0.138,0.495,0.275,0.984,0.411,1.468
				c0.269,0.967,0.531,1.913,0.787,2.834c0.498,1.846,1.037,3.578,1.379,5.246c0.378,1.658,0.732,3.21,1.059,4.645
				c0.336,1.432,0.629,2.75,0.831,3.954c0.85,4.8,1.336,7.542,1.336,7.542c0.072,0.408-0.2,0.797-0.607,0.869
				c-0.392,0.069-0.766-0.179-0.859-0.56l-0.007-0.03c0,0-0.65-2.688-1.788-7.392c-0.255-1.182-0.608-2.472-1.008-3.872
				c-0.39-1.401-0.812-2.917-1.263-4.536c-0.414-1.63-1.028-3.31-1.603-5.101c-0.294-0.893-0.596-1.81-0.905-2.747
				c-0.155-0.468-0.312-0.942-0.471-1.421c-0.181-0.47-0.364-0.946-0.548-1.427c-0.738-1.922-1.464-3.941-2.291-5.996
				c-0.904-2.02-1.838-4.108-2.798-6.254c-1.11-2.066-2.173-4.231-3.394-6.361c-0.646-1.043-1.299-2.096-1.958-3.16
				c-0.329-0.532-0.659-1.066-0.991-1.603c-0.37-0.51-0.741-1.021-1.114-1.535c-0.748-1.025-1.502-2.058-2.262-3.099
				c-0.788-1.015-1.66-1.973-2.493-2.973l-1.267-1.491c-0.429-0.494-0.921-0.929-1.379-1.398c-0.933-0.922-1.871-1.848-2.813-2.779
				c-3.979-3.493-8.393-6.571-13.117-9.137c-4.86-2.439-9.68-4.305-15.048-5.798c-2.393-0.62-4.975-1.165-7.498-1.282l-0.948-0.077
				l-0.951-0.013c-0.633-0.007-1.265-0.014-1.894-0.02c-1.261,0.076-2.514,0.078-3.755,0.245c-4.973,0.46-9.741,1.643-14.142,3.141
				c-4.421,1.453-8.487,3.234-12.156,5.055c-3.686,1.795-6.956,3.676-9.833,5.384c-2.874,1.715-5.32,3.322-7.302,4.689
				c-1.976,1.376-3.51,2.488-4.546,3.255c-1.038,0.774-1.563,1.197-1.563,1.197c-0.335,0.27-0.826,0.217-1.097-0.118
				c-0.254-0.316-0.222-0.769,0.062-1.046L160.084,494.824z"/>
		</g>
	</g>
	<g>
		<g>
			
				<linearGradient id="SVGID_00000010990233954632321240000008688607876248554393_" gradientUnits="userSpaceOnUse" x1="562.4218" y1="608.0185" x2="720.8033" y2="132.8727">
				<stop  offset="0" style="stop-color:#2B3582"/>
				<stop  offset="1" style="stop-color:#150E42"/>
			</linearGradient>
			<path style="fill:url(#SVGID_00000010990233954632321240000008688607876248554393_);" d="M971.376,625.255
				c0,6.814-5.581,12.389-12.401,12.389H288.373c-6.821,0-12.401-5.575-12.401-12.389l-5.58-385.376
				c0-6.814,8.028-20.117,22.741-19.117l655.386-16.958c8.558-0.221,16.832,3.073,22.892,9.113
				c6.06,6.041,9.376,14.299,9.174,22.849L971.376,625.255z"/>
			
				<linearGradient id="SVGID_00000049213952205622735540000009792573563522325923_" gradientUnits="userSpaceOnUse" x1="599.9681" y1="632.3159" x2="671.5746" y2="37.58">
				<stop  offset="0" style="stop-color:#A737D5"/>
				<stop  offset="1" style="stop-color:#EF497A"/>
			</linearGradient>
			<path style="fill:url(#SVGID_00000049213952205622735540000009792573563522325923_);" d="M959.133,613.369
				c0,6.453-5.28,11.732-11.732,11.732H304.545c-6.453,0-11.732-5.28-11.732-11.732l-5.266-349.848
				c0.62-21.053,19.078-28.62,30.267-28.173l628.146-16.852c6.012-0.161,11.827,2.153,16.084,6.403s6.581,10.06,6.431,16.072
				L959.133,613.369z"/>
			<g>
				<path style="fill:#FFFFFF;" d="M299.76,446.447c-0.546,0-0.991-0.439-1-0.985l-0.417-28.372
					c-0.008-0.552,0.433-1.007,0.985-1.015c0.526,0,1.006,0.434,1.015,0.985l0.417,28.372c0.008,0.552-0.433,1.007-0.985,1.015
					C299.771,446.447,299.766,446.447,299.76,446.447z"/>
				<path style="fill:#FFFFFF;" d="M298.739,376.921c-0.546,0-0.991-0.439-1-0.985l-1.596-108.665
					c0.033-7.273,2.274-13.083,6.662-17.287c7.978-7.645,20.464-7.259,20.987-7.24l200.586-5.383
					c0.565,0.021,1.012,0.422,1.026,0.974c0.015,0.552-0.42,1.011-0.973,1.026l-200.644,5.383c-0.565-0.026-12.226-0.381-19.6,6.685
					c-3.981,3.814-6.015,9.142-6.045,15.833l1.596,108.646c0.008,0.552-0.433,1.007-0.985,1.015
					C298.75,376.921,298.745,376.921,298.739,376.921z"/>
			</g>
			
				<linearGradient id="SVGID_00000088836374702688707990000015576331016201419405_" gradientUnits="userSpaceOnUse" x1="319.8406" y1="426.1043" x2="945.2346" y2="426.1043">
				<stop  offset="0" style="stop-color:#B37CFF"/>
				<stop  offset="1" style="stop-color:#F895E7"/>
			</linearGradient>
			<path style="opacity:0.5;fill:url(#SVGID_00000088836374702688707990000015576331016201419405_);" d="M321.135,593.962
				c0.673-28.915,0.422-284.968-1.237-307.082c-1.659-22.114,32.782-26.262,85.659-28.75c52.877-2.489,499.023-12.341,510.51-13.273
				c25.821-2.094,31.165,36.5,28.582,120.286c-1.941,62.947-5.157,166.641-6.637,214.328c-0.441,14.199-12.046,25.465-26.252,25.504
				c-107.361,0.295-518.844,1.474-546.236,2.29C334,608.203,320.868,605.427,321.135,593.962z"/>
		</g>
		
			<linearGradient id="SVGID_00000136374517581904446440000017924095773867196297_" gradientUnits="userSpaceOnUse" x1="600.9089" y1="814.3469" x2="660.5928" y2="488.0093">
			<stop  offset="0" style="stop-color:#2B3582"/>
			<stop  offset="1" style="stop-color:#150E42"/>
		</linearGradient>
		<path style="fill:url(#SVGID_00000136374517581904446440000017924095773867196297_);" d="M1008.848,669.635H252.096
			c-9.312,0-16.93-7.619-16.93-16.93l0,0c0-9.312,7.619-16.93,16.93-16.93h756.752c9.312,0,16.93,7.619,16.93,16.93l0,0
			C1025.778,662.017,1018.159,669.635,1008.848,669.635z"/>
	</g>
	<path style="fill:#FFFFFF;" d="M881.532,569H375.144c-7.37,0-13.144-6.094-13.144-13.874v-260.06
		c0-7.606,5.733-13.671,13.052-13.807l0.019,1l-0.019-1l506.318-9.418c3.6-0.061,7.01,1.341,9.605,3.965
		c2.558,2.585,4.025,6.172,4.025,9.842v269.478C895,562.776,888.958,569,881.532,569z M375.089,283.26
		c-6.218,0.115-11.089,5.302-11.089,11.807v260.06c0,6.658,4.895,11.874,11.144,11.874h506.389c6.323,0,11.468-5.326,11.468-11.874
		V285.648c0-3.147-1.256-6.222-3.447-8.436c-2.207-2.229-5.116-3.407-8.146-3.371L375.089,283.26z"/>
	
		<linearGradient id="SVGID_00000182511329813046385120000013812399304744227240_" gradientUnits="userSpaceOnUse" x1="621.6859" y1="368.7381" x2="166.5904" y2="638.6565">
		<stop  offset="0" style="stop-color:#53D8FF"/>
		<stop  offset="1" style="stop-color:#3840F7"/>
	</linearGradient>
	<path style="fill:url(#SVGID_00000182511329813046385120000013812399304744227240_);" d="M700,327.738
		c0-5.378-4.36-9.738-9.739-9.738H393.739c-5.378,0-9.739,4.36-9.739,9.738v176.523c0,5.378,4.36,9.738,9.739,9.738h296.523
		c5.378,0,9.739-4.36,9.739-9.738V327.738z"/>
	<g>
		<path style="fill:#FFFFFF;" d="M840.993,383H733.599c-7.064,0-12.599-5.563-12.599-12.664v-40.865
			c0-6.993,5.534-12.471,12.599-12.471h107.394c7.462,0,14.007,5.827,14.007,12.471v40.865C855,377.082,848.455,383,840.993,383z
			 M733.599,319c-6.042,0-10.599,4.501-10.599,10.471v40.865c0,5.242,3.964,10.664,10.599,10.664h107.394
			c6.284,0,12.007-5.083,12.007-10.664v-40.865c0-5.578-5.611-10.471-12.007-10.471H733.599z"/>
		<path style="fill:#FFFFFF;" d="M840.993,465H733.599c-7.183,0-12.599-5.285-12.599-12.294v-40.865
			c0-6.311,4.712-12.841,12.599-12.841h107.394c7.331,0,14.007,6.12,14.007,12.841v40.865C855,459.37,848.585,465,840.993,465z
			 M733.599,401c-6.634,0-10.599,5.512-10.599,10.841v40.865c0,5.868,4.557,10.294,10.599,10.294h107.394
			c6.397,0,12.007-4.81,12.007-10.294v-40.865c0-5.674-5.723-10.841-12.007-10.841H733.599z"/>
		<path style="fill:#FFFFFF;" d="M840.993,547H733.599c-7.3,0-12.599-5.015-12.599-11.924v-40.865
			c0-6.354,4.817-13.211,12.599-13.211h107.394c7.331,0,14.007,6.297,14.007,13.211v40.865C855,541.651,848.716,547,840.993,547z
			 M733.599,483c-6.546,0-10.599,5.819-10.599,11.211v40.865c0,5.75,4.458,9.924,10.599,9.924h107.394
			c6.509,0,12.007-4.545,12.007-9.924v-40.865c0-5.763-5.835-11.211-12.007-11.211H733.599z"/>
	</g>
	<path style="opacity:0.5;fill:#FFFFFF;" d="M587.642,526.847c-30.226-0.074-167.236-0.39-197.524-0.106
		c-3.259,0.031-6.117,2.678-6.117,5.937v3.315c0,3.227,2.594,5.863,5.82,5.938l197.229,4.528c1.598,0.037,3.582-0.573,4.726-1.69
		c1.143-1.118,2.226-2.649,2.226-4.248v-7.736C594,529.511,590.916,526.855,587.642,526.847z"/>
	<path style="fill:#FFFFFF;" d="M894,301H363c-0.552,0-1-0.447-1-1s0.448-1,1-1h531c0.552,0,1,0.447,1,1S894.552,301,894,301z"/>
	<path style="fill:#FFFFFF;" d="M829.933,293h-0.865c-3.346,0-6.067-2.722-6.067-6.067v-0.865c0-3.346,2.722-6.067,6.067-6.067
		h0.865c3.346,0,6.067,2.722,6.067,6.067v0.865C836,290.278,833.278,293,829.933,293z M829.067,282
		c-2.243,0-4.067,1.824-4.067,4.067v0.865c0,2.243,1.825,4.067,4.067,4.067h0.865c2.243,0,4.067-1.824,4.067-4.067v-0.865
		c0-2.243-1.825-4.067-4.067-4.067H829.067z"/>
	<path style="fill:#FFFFFF;" d="M852.933,293h-0.865c-3.346,0-6.067-2.722-6.067-6.067v-0.865c0-3.346,2.722-6.067,6.067-6.067
		h0.865c3.346,0,6.067,2.722,6.067,6.067v0.865C859,290.278,856.278,293,852.933,293z M852.067,282
		c-2.243,0-4.067,1.824-4.067,4.067v0.865c0,2.243,1.825,4.067,4.067,4.067h0.865c2.243,0,4.067-1.824,4.067-4.067v-0.865
		c0-2.243-1.825-4.067-4.067-4.067H852.067z"/>
	<path style="fill:#FFFFFF;" d="M876.933,293h-0.865c-3.346,0-6.067-2.722-6.067-6.067v-0.865c0-3.346,2.722-6.067,6.067-6.067
		h0.865c3.346,0,6.067,2.722,6.067,6.067v0.865C883,290.278,880.278,293,876.933,293z M876.067,282
		c-2.243,0-4.067,1.824-4.067,4.067v0.865c0,2.243,1.825,4.067,4.067,4.067h0.865c2.243,0,4.067-1.824,4.067-4.067v-0.865
		c0-2.243-1.825-4.067-4.067-4.067H876.067z"/>
	<g>
		<g>
			<path style="fill:#FFFFFF;" d="M405,375c-0.552,0-1-0.447-1-1v-38c0-0.553,0.448-1,1-1h29c0.552,0,1,0.447,1,1s-0.448,1-1,1h-28
				v37C406,374.553,405.552,375,405,375z"/>
			<path style="fill:#FFFFFF;" d="M679,375c-0.552,0-1-0.447-1-1v-37h-28c-0.552,0-1-0.447-1-1s0.448-1,1-1h29c0.552,0,1,0.447,1,1
				v38C680,374.553,679.552,375,679,375z"/>
		</g>
		<g>
			<path style="fill:#FFFFFF;" d="M434,491h-29c-0.552,0-1-0.447-1-1v-37c0-0.553,0.448-1,1-1s1,0.447,1,1v36h28
				c0.552,0,1,0.447,1,1S434.552,491,434,491z"/>
			<path style="fill:#FFFFFF;" d="M679,491h-29c-0.552,0-1-0.447-1-1s0.448-1,1-1h28v-36c0-0.553,0.448-1,1-1s1,0.447,1,1v37
				C680,490.553,679.552,491,679,491z"/>
		</g>
	</g>
	<g>
		<path style="fill:#FFFFFF;" d="M536.526,465C509.746,465,488,443.255,488,416.526C488,389.745,509.746,368,536.474,368
			c26.78,0,48.526,21.745,48.526,48.474v0.053C585,443.255,563.254,465,536.526,465z M536.526,370
			C510.848,370,490,390.848,490,416.474C490,442.152,510.848,463,536.474,463C562.152,463,583,442.152,583,416.526v-0.053
			C583,390.848,562.152,370,536.526,370z"/>
		<path style="fill:#FFFFFF;" d="M523.006,441.083c-1.368,0-2.495-1.09-2.532-2.466l-1.157-43.211
			c-0.038-1.425,0.651-2.741,1.843-3.522c1.191-0.781,2.673-0.888,3.965-0.284l42.685,19.965c1.408,0.658,2.309,2.033,2.351,3.588
			c0.041,1.555-0.786,2.975-2.159,3.708l-37.679,20.087c-1.236,0.658-2.77,0.19-3.427-1.044c-0.659-1.235-0.191-2.769,1.044-3.427
			l35.936-19.158l-39.449-18.451l1.115,41.614c0.037,1.399-1.066,2.563-2.465,2.601
			C523.052,441.083,523.029,441.083,523.006,441.083z"/>
	</g>
	<g>
		
			<linearGradient id="SVGID_00000058555763858360659800000014068941486152317338_" gradientUnits="userSpaceOnUse" x1="623.0071" y1="335.3623" x2="862.2708" y2="384.1667" gradientTransform="matrix(0.9364 0.013 -0.0112 0.8069 54.3474 -145.598)">
			<stop  offset="0" style="stop-color:#B37CFF"/>
			<stop  offset="1" style="stop-color:#F895E7"/>
		</linearGradient>
		<path style="opacity:0.6;fill:url(#SVGID_00000058555763858360659800000014068941486152317338_);" d="M657.199,146.683
			c-2.194-18.759,19.159-45.224,57.788-21.843c1.061-8.881,49.523-36.514,71.968,21.619c3.839-14.099,39.013-7.03,45.341,16.802
			c13.221-5.882,45.022,23.651,2.937,28.75c-53.745,6.511-176.879,4.626-198.958-27.623
			C614.198,132.137,657.199,146.683,657.199,146.683z"/>
		
			<linearGradient id="SVGID_00000109735546853090787560000004858275762820048287_" gradientUnits="userSpaceOnUse" x1="861.6919" y1="305.4352" x2="1015.1696" y2="336.7412" gradientTransform="matrix(0.9364 0.013 -0.0112 0.8069 54.3474 -145.598)">
			<stop  offset="0" style="stop-color:#B37CFF"/>
			<stop  offset="1" style="stop-color:#F895E7"/>
		</linearGradient>
		<path style="opacity:0.6;fill:url(#SVGID_00000109735546853090787560000004858275762820048287_);" d="M872.712,120.77
			c-1.408-12.033,12.29-29.009,37.069-14.012c0.681-5.697,31.767-23.422,46.164,13.868c2.462-9.044,25.026-4.509,29.085,10.778
			c8.48-3.773,28.879,15.171,1.884,18.442c-34.475,4.176-113.461,2.967-127.623-17.719
			C845.128,111.439,872.712,120.77,872.712,120.77z"/>
	</g>
	<g>
		<g>
			<g>
				<path style="fill:#FFFFFF;" d="M498.843,233.963c-0.713,0-1.383-0.387-1.733-1.028l-5.452-9.951
					c-5.379-0.385-10.63-1.577-15.624-3.548l-9.214,6.613c-0.684,0.492-1.605,0.494-2.294,0.009l-11.647-8.25
					c-0.688-0.488-0.991-1.359-0.755-2.168l3.18-10.887c-3.517-4.059-6.383-8.616-8.53-13.561l-11.198-1.841
					c-0.833-0.138-1.487-0.789-1.628-1.62l-2.402-14.066c-0.143-0.831,0.259-1.662,1-2.067l9.952-5.451
					c0.384-5.378,1.576-10.629,3.546-15.624l-6.613-9.214c-0.491-0.687-0.494-1.608-0.007-2.296l8.249-11.647
					c0.488-0.688,1.359-0.991,2.168-0.754l10.886,3.181c4.058-3.517,8.616-6.383,13.561-8.53l1.841-11.198
					c0.137-0.833,0.788-1.487,1.619-1.629l14.067-2.401c0.832-0.146,1.661,0.258,2.067,0.998l5.453,9.953
					c5.379,0.385,10.63,1.577,15.624,3.548l9.214-6.613c0.685-0.491,1.608-0.495,2.296-0.008l11.646,8.249
					c0.688,0.488,0.992,1.359,0.755,2.169l-3.18,10.886c3.517,4.059,6.383,8.616,8.53,13.562l11.198,1.841
					c0.833,0.138,1.487,0.788,1.629,1.618l2.402,14.068c0.142,0.83-0.259,1.661-1,2.066l-9.953,5.452
					c-0.384,5.378-1.576,10.629-3.546,15.624l6.613,9.214c0.492,0.686,0.495,1.608,0.006,2.297l-8.248,11.645
					c-0.486,0.686-1.358,0.993-2.167,0.756l-10.888-3.181c-4.058,3.517-8.616,6.383-13.561,8.53l-1.841,11.198
					c-0.137,0.834-0.789,1.488-1.621,1.629l-14.065,2.401C499.065,233.954,498.954,233.963,498.843,233.963z M475.762,217.169
					l0.512,0.208c5.116,2.081,10.519,3.308,16.059,3.646l0.551,0.033l5.981,10.918l14.043-2.413l2.001-12.266l0.509-0.214
					c5.113-2.158,9.802-5.107,13.939-8.768l0.413-0.365l11.943,3.488l8.224-11.638l-7.254-10.081l0.208-0.512
					c2.081-5.118,3.308-10.521,3.646-16.059l0.034-0.552l10.919-5.98l-2.414-14.044l-12.266-2.001l-0.214-0.509
					c-2.156-5.111-5.106-9.802-8.768-13.938l-0.366-0.414l3.489-11.942l-11.637-8.224l-10.082,7.255l-0.512-0.208
					c-5.116-2.081-10.519-3.308-16.059-3.646l-0.551-0.033l-5.981-10.919l-14.043,2.413l-2.001,12.267l-0.509,0.214
					c-5.113,2.158-9.802,5.107-13.939,8.769l-0.413,0.365l-11.928-3.484l-8.239,11.634l7.254,10.081l-0.208,0.512
					c-2.081,5.118-3.308,10.521-3.646,16.059l-0.034,0.552l-10.918,5.98l2.414,14.044l12.266,2.001l0.214,0.509
					c2.156,5.111,5.107,9.802,8.768,13.938l0.366,0.414l-3.489,11.942l11.637,8.224L475.762,217.169z M495.723,205.401
					c-7.272,0-14.351-2.239-20.406-6.527c-5.242-3.713-9.373-8.768-11.946-14.617c-0.222-0.505,0.007-1.096,0.513-1.317
					c0.508-0.222,1.096,0.008,1.318,0.513c2.427,5.518,6.324,10.286,11.271,13.789c7.288,5.163,16.153,7.178,24.953,5.674
					c8.804-1.503,16.495-6.345,21.657-13.633s7.177-16.149,5.674-24.953c-1.503-8.804-6.345-16.495-13.633-21.656
					c-15.044-10.657-35.954-7.086-46.61,7.959c-1.379,1.946-2.549,4.036-3.479,6.212c-0.217,0.507-0.805,0.741-1.313,0.526
					c-0.508-0.218-0.744-0.806-0.526-1.314c0.985-2.305,2.226-4.518,3.686-6.581c11.293-15.944,33.454-19.729,49.398-8.436
					c7.724,5.471,12.854,13.622,14.448,22.952c1.593,9.33-0.542,18.723-6.013,26.446c-5.471,7.724-13.622,12.854-22.952,14.448
					C499.747,205.23,497.727,205.401,495.723,205.401z"/>
				<path style="fill:#FFFFFF;" d="M495.518,183.656c-0.362,0-0.725-0.015-1.089-0.043c-3.64-0.285-6.952-1.971-9.325-4.747
					c-4.897-5.73-4.22-14.378,1.509-19.275l0,0c5.732-4.9,14.379-4.221,19.276,1.51c2.372,2.775,3.522,6.31,3.237,9.95
					c-0.285,3.641-1.971,6.952-4.747,9.324C501.881,182.511,498.769,183.656,495.518,183.656z M487.912,161.11
					c-4.892,4.182-5.47,11.564-1.289,16.457c2.026,2.369,4.853,3.809,7.961,4.052c3.109,0.243,6.125-0.738,8.495-2.764
					c2.37-2.026,3.809-4.854,4.053-7.961c0.243-3.108-0.738-6.125-2.764-8.495C500.186,157.508,492.805,156.93,487.912,161.11
					L487.912,161.11z"/>
			</g>
			<g>
				<path style="fill:#FFFFFF;" d="M605.282,195.275c-0.062,0-0.124-0.004-0.187-0.012l-6.809-0.86
					c-0.621-0.076-1.126-0.542-1.254-1.159l-1.061-5.065c-2.28-0.901-4.41-2.115-6.343-3.614l-4.898,1.665
					c-0.595,0.201-1.252,0.005-1.636-0.492l-4.206-5.421c-0.385-0.495-0.413-1.181-0.069-1.707l2.831-4.329
					c-0.971-2.243-1.617-4.607-1.924-7.043l-4.645-2.287c-0.562-0.277-0.887-0.881-0.809-1.503l0.86-6.811
					c0.08-0.623,0.545-1.126,1.158-1.254l5.067-1.063c0.903-2.28,2.116-4.409,3.615-6.343l-1.666-4.898
					c-0.202-0.594-0.004-1.251,0.491-1.635l5.423-4.207c0.494-0.384,1.178-0.412,1.704-0.07l4.332,2.832
					c2.243-0.971,4.607-1.617,7.043-1.925l2.288-4.644c0.276-0.563,0.877-0.887,1.504-0.81l6.808,0.859
					c0.623,0.079,1.127,0.545,1.255,1.158l1.061,5.066c2.282,0.903,4.411,2.116,6.343,3.615l4.898-1.665
					c0.594-0.203,1.25-0.005,1.634,0.488l4.208,5.425c0.384,0.496,0.411,1.181,0.068,1.706l-2.83,4.33
					c0.971,2.245,1.617,4.609,1.924,7.043l4.645,2.287c0.563,0.278,0.888,0.883,0.809,1.504l-0.859,6.809
					c-0.08,0.623-0.544,1.127-1.158,1.255l-5.067,1.062c-0.902,2.28-2.116,4.41-3.615,6.344l1.665,4.898
					c0.201,0.596,0.004,1.252-0.491,1.636l-5.423,4.207c-0.494,0.384-1.179,0.413-1.705,0.069l-4.331-2.831
					c-2.245,0.971-4.608,1.617-7.043,1.924l-2.288,4.645C606.35,194.961,605.835,195.275,605.282,195.275z M598.912,192.467
					l6.06,0.766l2.605-5.291l0.549-0.057c2.598-0.272,5.113-0.96,7.477-2.043l0.502-0.229l4.933,3.224l4.827-3.744l-1.897-5.579
					l0.348-0.43c1.638-2.021,2.929-4.288,3.837-6.734l0.192-0.518l5.771-1.209l0.765-6.06l-5.289-2.605l-0.058-0.549
					c-0.272-2.597-0.959-5.112-2.043-7.478l-0.23-0.502l3.224-4.934l-3.744-4.825l-5.58,1.896l-0.429-0.347
					c-2.021-1.638-4.287-2.929-6.735-3.839l-0.517-0.192l-1.209-5.771l-6.06-0.766l-2.605,5.289l-0.549,0.058
					c-2.599,0.274-5.115,0.961-7.479,2.044l-0.501,0.23l-4.932-3.224l-4.827,3.744l1.897,5.579l-0.348,0.43
					c-1.637,2.021-2.929,4.287-3.838,6.734l-0.192,0.517l-5.771,1.21l-0.765,6.06l5.29,2.605l0.058,0.549
					c0.272,2.599,0.96,5.114,2.043,7.478l0.23,0.502l-3.225,4.933l3.744,4.826l5.579-1.896l0.429,0.347
					c2.023,1.639,4.288,2.93,6.735,3.838l0.518,0.192L598.912,192.467z M605.754,181.527c-5.247,0.001-10.438-2.334-13.896-6.79
					c-1.952-2.515-3.183-5.507-3.561-8.652c-0.066-0.548,0.325-1.046,0.873-1.112c0.546-0.064,1.047,0.325,1.112,0.874
					c0.336,2.785,1.426,5.436,3.156,7.664c5.259,6.78,15.054,8.017,21.835,2.758c3.284-2.548,5.379-6.223,5.9-10.347
					c0.521-4.124-0.596-8.204-3.144-11.488c-5.26-6.779-15.054-8.016-21.834-2.757c-0.878,0.682-1.682,1.454-2.39,2.296
					c-0.355,0.424-0.986,0.477-1.409,0.123c-0.423-0.355-0.478-0.985-0.123-1.408c0.798-0.951,1.705-1.823,2.695-2.591
					c7.651-5.936,18.705-4.54,24.64,3.11c2.875,3.707,4.136,8.312,3.548,12.966c-0.587,4.654-2.952,8.801-6.659,11.676
					C613.305,180.327,609.515,181.527,605.754,181.527z"/>
			</g>
		</g>
	</g>
	<g>
		<g>
			<g>
				
					<linearGradient id="SVGID_00000036225034851460572320000000453480180063776147_" gradientUnits="userSpaceOnUse" x1="14269.1836" y1="-772.7692" x2="14227.3291" y2="-1103.2698" gradientTransform="matrix(-1 0 0 1 15165.626 0)">
					<stop  offset="0" style="stop-color:#50E7B7"/>
					<stop  offset="0.9964" style="stop-color:#323992"/>
				</linearGradient>
				<path style="fill:url(#SVGID_00000036225034851460572320000000453480180063776147_);" d="M681.478,715.474
					c1.392,0,2.717-0.788,3.302-2.105l75.346-169.572c0.784-1.764-0.058-3.81-1.88-4.569c-1.821-0.759-3.935,0.055-4.72,1.82
					L678.18,710.62c-0.784,1.764,0.058,3.81,1.88,4.569C680.523,715.382,681.005,715.474,681.478,715.474z"/>
				
					<linearGradient id="SVGID_00000165205022116385926030000001904152881474539652_" gradientUnits="userSpaceOnUse" x1="14917.5518" y1="-867.3922" x2="14875.6973" y2="-1197.8926" gradientTransform="matrix(1 0 0 1 -14308.0996 0)">
					<stop  offset="0" style="stop-color:#50E7B7"/>
					<stop  offset="0.9964" style="stop-color:#323992"/>
				</linearGradient>
				<path style="fill:url(#SVGID_00000165205022116385926030000001904152881474539652_);" d="M836.4,715.474
					c-1.392,0-2.717-0.788-3.302-2.105l-75.346-169.572c-0.784-1.764,0.058-3.81,1.88-4.569c1.821-0.759,3.935,0.055,4.72,1.82
					l75.346,169.572c0.784,1.764-0.058,3.81-1.88,4.569C837.355,715.382,836.873,715.474,836.4,715.474z"/>
				
					<linearGradient id="SVGID_00000027605887235278584330000012491422496706260372_" gradientUnits="userSpaceOnUse" x1="14613.9893" y1="-806.3767" x2="14572.1348" y2="-1136.8772" gradientTransform="matrix(0.921 0.3896 -0.3896 0.921 -12632.8203 -5670.8301)">
					<stop  offset="0" style="stop-color:#50E7B7"/>
					<stop  offset="0.9964" style="stop-color:#323992"/>
				</linearGradient>
				<path style="fill:url(#SVGID_00000027605887235278584330000012491422496706260372_);" d="M762.179,723.178
					c-1.282-0.542-2.195-1.784-2.221-3.225l-3.319-185.528c-0.035-1.93,1.538-3.487,3.512-3.476
					c1.973,0.011,3.603,1.584,3.638,3.516l3.319,185.528c0.035,1.931-1.538,3.487-3.512,3.476
					C763.095,723.466,762.615,723.362,762.179,723.178z"/>
			</g>
			
				<linearGradient id="SVGID_00000174599172011463053740000004934867917023605914_" gradientUnits="userSpaceOnUse" x1="711.473" y1="520.7736" x2="999.6265" y2="466.2863">
				<stop  offset="0" style="stop-color:#9CFFFB"/>
				<stop  offset="1" style="stop-color:#9BFFFA"/>
			</linearGradient>
			<path style="fill:url(#SVGID_00000174599172011463053740000004934867917023605914_);" d="M767,536.62
				c0,3.225-3.158,5.38-6.561,5.38h-0.04c-3.403,0-5.399-2.155-5.399-5.38v-49.66c0-3.225,1.996-5.96,5.399-5.96h0.04
				c3.403,0,6.561,2.735,6.561,5.96V536.62z"/>
			<g>
				<g>
					
						<linearGradient id="SVGID_00000085211832445881516420000004739355953012625803_" gradientUnits="userSpaceOnUse" x1="738.6614" y1="485.0511" x2="769.5107" y2="485.0511">
						<stop  offset="0" style="stop-color:#2C759E"/>
						<stop  offset="1" style="stop-color:#051042"/>
					</linearGradient>
					<path style="fill:url(#SVGID_00000085211832445881516420000004739355953012625803_);" d="M738.661,474l0.887,13.03
						c0.08,1.186,1.065,1.97,2.253,1.97H749v4.188c0,1.771,0.127,2.812,1.898,2.812h4.794l9.812,0.102L769.511,474H738.661z"/>
					
						<linearGradient id="SVGID_00000132078841021325745500000008511430997602681736_" gradientUnits="userSpaceOnUse" x1="750.4182" y1="485.1892" x2="790.6033" y2="485.1892">
						<stop  offset="0" style="stop-color:#2B3582"/>
						<stop  offset="1" style="stop-color:#150E42"/>
					</linearGradient>
					<path style="fill:url(#SVGID_00000132078841021325745500000008511430997602681736_);" d="M750.418,474l5.091,22.107
						l16.048,0.271c1.631,0.031,3.025-1.185,3.241-2.802l0.713-5.354l5.495,0.077c3.875,0.058,7.24-2.585,8-6.385l1.597-7.914
						H750.418z"/>
				</g>
				<g>
					
						<linearGradient id="SVGID_00000134963556933903925700000010722885305397975436_" gradientUnits="userSpaceOnUse" x1="710.7214" y1="444" x2="768.056" y2="444">
						<stop  offset="0" style="stop-color:#2B3582"/>
						<stop  offset="1" style="stop-color:#150E42"/>
					</linearGradient>
					<path style="fill:url(#SVGID_00000134963556933903925700000010722885305397975436_);" d="M754.687,412h-8.515
						c-2.914,0-5.311,1.611-5.439,4.522L740.417,423h-20.306c-4.872,0-8.841,4.245-8.909,9.117l-0.48,34.714
						c-0.033,2.384,0.891,4.75,2.565,6.448c1.674,1.698,3.959,2.721,6.344,2.721h5.512h42.913L754.687,412z"/>
					
						<linearGradient id="SVGID_00000089573486446178745100000010397758909050556329_" gradientUnits="userSpaceOnUse" x1="810.2071" y1="405.5514" x2="674.7341" y2="560.6901">
						<stop  offset="0" style="stop-color:#2C759E"/>
						<stop  offset="1" style="stop-color:#051042"/>
					</linearGradient>
					<path style="fill:url(#SVGID_00000089573486446178745100000010397758909050556329_);" d="M814.81,466.626l-1.919-34.879
						c-0.262-4.721-4.167-8.746-8.896-8.746H779v-7.362c0-1.503-1.366-2.939-2.461-3.968c-1.096-1.029-2.94-1.559-4.44-1.466
						l-15.343,0.95c-1.558,0.098-3.092,0.859-4.05,2.091c-0.958,1.232-1.388,2.486-1.099,4.02l1.097,5.735h-15.74
						c-4.921,0-7.963,4.651-7.963,9.572v34.548c0,4.921,3.042,8.88,7.963,8.88h68.952c2.449,0,4.79-0.993,6.473-2.772
						C814.07,471.449,814.946,469.07,814.81,466.626z"/>
				</g>
				
					<linearGradient id="SVGID_00000142887748391999624550000017548479222431553947_" gradientUnits="userSpaceOnUse" x1="781.0598" y1="424.284" x2="703.2009" y2="513.4451">
					<stop  offset="0" style="stop-color:#50E7B7"/>
					<stop  offset="0.9964" style="stop-color:#323992"/>
				</linearGradient>
				<path style="fill:url(#SVGID_00000142887748391999624550000017548479222431553947_);" d="M782.309,437.003
					c-1.034-1.178-2.525-2.003-4.092-2.003H740.77c-3.007,0-5.77,2.737-5.77,5.743v19.659c0,3.007,2.764,5.597,5.77,5.597h34.872
					c2.734,0,5.043-2.103,5.398-4.814l2.574-19.772C783.819,439.86,783.343,438.181,782.309,437.003z"/>
				<g>
					
						<linearGradient id="SVGID_00000057136693482494273050000006842716021814936210_" gradientUnits="userSpaceOnUse" x1="768.1861" y1="413.3939" x2="716.8755" y2="484.3233">
						<stop  offset="0" style="stop-color:#50E7B7"/>
						<stop  offset="0.9964" style="stop-color:#323992"/>
					</linearGradient>
					<path style="fill:url(#SVGID_00000057136693482494273050000006842716021814936210_);" d="M759.252,422.432
						c-1.24,0-2.32-0.883-2.568-2.099l-0.311-1.526c-0.158-0.774,0.038-1.9,0.538-2.513c0.5-0.612,1.24-1.294,2.031-1.294h10.856
						c1.446,0,3.202,1.837,3.202,3.283v0.433c0,1.348-1.301,2.47-2.641,2.608l-10.69,1.094
						C759.578,422.428,759.342,422.432,759.252,422.432z M758.942,416c-0.572,0-1.106,0.448-1.468,0.89
						c-0.361,0.443-0.503,1.115-0.389,1.675l0.311,1.575c0.193,0.942,1.075,1.625,2.053,1.531l11.198-1.082
						c0.969-0.101,2.353-0.899,2.353-1.873v-0.433c0-1.045-2.157-2.283-3.202-2.283H758.942z"/>
				</g>
				
					<linearGradient id="SVGID_00000098923945749361700330000007665549271436339078_" gradientUnits="userSpaceOnUse" x1="772.0564" y1="441.057" x2="776.784" y2="441.057">
					<stop  offset="0" style="stop-color:#E40045"/>
					<stop  offset="1" style="stop-color:#5C0E16"/>
				</linearGradient>
				<circle style="fill:url(#SVGID_00000098923945749361700330000007665549271436339078_);" cx="774.42" cy="441.057" r="2.364"/>
				
					<linearGradient id="SVGID_00000014625076126666449390000017545371551784454040_" gradientUnits="userSpaceOnUse" x1="790" y1="456.6663" x2="808" y2="456.6663">
					<stop  offset="0" style="stop-color:#2B3582"/>
					<stop  offset="1" style="stop-color:#150E42"/>
				</linearGradient>
				<path style="fill:url(#SVGID_00000014625076126666449390000017545371551784454040_);" d="M794.16,455
					c0-1,0.056-6.396,0.602-6.578c0.546-0.182,8.239-0.031,8.239-0.031V455h5v6h-6.487l0.364,4h-7.091l0.062-5.122l-4.847,1.06V455
					H794.16z"/>
				
					<linearGradient id="SVGID_00000093154229933078235840000004891629071115702680_" gradientUnits="userSpaceOnUse" x1="793.6339" y1="438.8144" x2="803.8165" y2="438.8144">
					<stop  offset="0" style="stop-color:#2B3582"/>
					<stop  offset="1" style="stop-color:#150E42"/>
				</linearGradient>
				<circle style="fill:url(#SVGID_00000093154229933078235840000004891629071115702680_);" cx="798.725" cy="438.814" r="5.091"/>
			</g>
			<g>
				
					<linearGradient id="SVGID_00000145041682948295506650000007622717433490873268_" gradientUnits="userSpaceOnUse" x1="660.2365" y1="556.7103" x2="1209.5212" y2="452.8454">
					<stop  offset="0" style="stop-color:#2C759E"/>
					<stop  offset="1" style="stop-color:#051042"/>
				</linearGradient>
				<path style="fill:url(#SVGID_00000145041682948295506650000007622717433490873268_);" d="M775,539.051
					c0,2.954-3.839,4.949-7.186,4.949h-27.881c-3.347,0-5.932-1.996-5.932-4.949v-0.214c0-2.954,2.585-4.837,5.932-4.837h27.881
					c3.347,0,7.186,1.883,7.186,4.837V539.051z"/>
				<g>
					
						<linearGradient id="SVGID_00000127726171309073429400000013268380266521724034_" gradientUnits="userSpaceOnUse" x1="672.613" y1="555.8914" x2="1196.184" y2="456.8888">
						<stop  offset="0" style="stop-color:#2B3582"/>
						<stop  offset="1" style="stop-color:#150E42"/>
					</linearGradient>
					<path style="fill:url(#SVGID_00000127726171309073429400000013268380266521724034_);" d="M782,539.19
						c0,3.028-2.838,4.81-6.186,4.81h-27.881c-3.348,0-4.933-1.782-4.933-4.81v-0.219c0-3.028,1.586-4.971,4.933-4.971h27.881
						c3.347,0,6.186,1.943,6.186,4.971V539.19z"/>
				</g>
			</g>
			
				<linearGradient id="SVGID_00000181064553044307002340000006716567482739240623_" gradientUnits="userSpaceOnUse" x1="778.6316" y1="492.2064" x2="806.6046" y2="492.2064">
				<stop  offset="0" style="stop-color:#9CFFFB"/>
				<stop  offset="1" style="stop-color:#9BFFFA"/>
			</linearGradient>
			<path style="fill:url(#SVGID_00000181064553044307002340000006716567482739240623_);" d="M781.875,481.121
				c0.737-0.211,24.729,20.365,24.729,20.365l-3.879,1.807l-23.517-16.839C779.208,486.455,776.784,482.576,781.875,481.121z"/>
			
				<linearGradient id="SVGID_00000183236908122085639740000004579120016382751880_" gradientUnits="userSpaceOnUse" x1="977.4562" y1="796.4625" x2="934.8621" y2="855.3428" gradientTransform="matrix(0.9923 -0.1242 0.1242 0.9923 -251.0036 -163.7459)">
				<stop  offset="0" style="stop-color:#2B3582"/>
				<stop  offset="1" style="stop-color:#150E42"/>
			</linearGradient>
			<path style="fill:url(#SVGID_00000183236908122085639740000004579120016382751880_);" d="M806.121,498.689
				c-1.15-0.758-2.658-0.698-3.742,0.152c-1.903,1.49-4.099,3.984-1.138,6.081c4.558,3.228,23.867,18.891,26.543,16.846
				C830.406,519.763,834.895,517.653,806.121,498.689z"/>
		</g>
		<g>
			
				<linearGradient id="SVGID_00000169534205372446571690000012357786830152058293_" gradientUnits="userSpaceOnUse" x1="570.2646" y1="216.4511" x2="548.7344" y2="364.5781">
				<stop  offset="0" style="stop-color:#CB236D"/>
				<stop  offset="1" style="stop-color:#4C246D"/>
			</linearGradient>
			<path style="fill:url(#SVGID_00000169534205372446571690000012357786830152058293_);" d="M531.708,384.374
				c0,0,116.26-57.443,78.239-99.737c-38.021-42.294-108.905-25.389-112.496,19.126C493.86,348.277,580.135,337.833,531.708,384.374
				z"/>
			<g>
				<path style="fill:#FFFFFF;" d="M600.112,296.56h-51.309c-0.552,0-1-0.447-1-1c0-0.553,0.448-1,1-1h51.309c0.552,0,1,0.447,1,1
					C601.112,296.113,600.665,296.56,600.112,296.56z"/>
				<path style="fill:#FFFFFF;" d="M533.568,296.56h-15.225c-0.552,0-1-0.447-1-1c0-0.553,0.448-1,1-1h15.225c0.552,0,1,0.447,1,1
					C534.568,296.113,534.12,296.56,533.568,296.56z"/>
				<path style="fill:#FFFFFF;" d="M601.841,306.948h-19.266c-0.552,0-1-0.447-1-1c0-0.553,0.448-1,1-1h19.266c0.552,0,1,0.447,1,1
					C602.841,306.501,602.393,306.948,601.841,306.948z"/>
				<path style="fill:#FFFFFF;" d="M554.305,306.948h-34.233c-0.552,0-1-0.447-1-1c0-0.553,0.448-1,1-1h34.233c0.552,0,1,0.447,1,1
					C555.305,306.501,554.857,306.948,554.305,306.948z"/>
				<path style="fill:#FFFFFF;" d="M603.569,317.336h-51.214c-0.552,0-1-0.447-1-1c0-0.553,0.448-1,1-1h51.214c0.552,0,1,0.447,1,1
					C604.569,316.889,604.122,317.336,603.569,317.336z"/>
				<path style="fill:#FFFFFF;" d="M539.53,317.336H521.8c-0.552,0-1-0.447-1-1c0-0.553,0.448-1,1-1h17.73c0.552,0,1,0.447,1,1
					C540.53,316.889,540.083,317.336,539.53,317.336z"/>
			</g>
		</g>
		<g>
			<g>
				
					<linearGradient id="SVGID_00000145753386179537500380000017154985502975246211_" gradientUnits="userSpaceOnUse" x1="-9425.6611" y1="696.6677" x2="-9517.9473" y2="769.1312" gradientTransform="matrix(-1 0 0 1 -8982.2041 0)">
					<stop  offset="0" style="stop-color:#2B3582"/>
					<stop  offset="1" style="stop-color:#150E42"/>
				</linearGradient>
				<path style="fill:url(#SVGID_00000145753386179537500380000017154985502975246211_);" d="M473.654,715.174
					c6.206-0.174,9.416-0.905,11.075-1.583c0.004,0.617,0,1.245-0.02,1.896c-0.021,0.695-0.536,1.25-1.169,1.246l-34.075-0.22
					c-1.087-0.007-1.723-1.268-1.252-2.265C452.681,714.617,464.06,715.443,473.654,715.174z"/>
				
					<linearGradient id="SVGID_00000178908316795280730620000016531668268875234226_" gradientUnits="userSpaceOnUse" x1="6548.5879" y1="714.5251" x2="6630.248" y2="687.5994" gradientTransform="matrix(1 0 0 1 -6096.875 0)">
					<stop  offset="0" style="stop-color:#2B3582"/>
					<stop  offset="1" style="stop-color:#150E42"/>
				</linearGradient>
				<path style="fill:url(#SVGID_00000178908316795280730620000016531668268875234226_);" d="M482.999,702.109
					c-0.78-2.771-3.339-4.651-6.216-4.56l-2.846,0.09c-15.145,3.631-22.81,12.004-25.819,16.209
					c-0.059,0.082-0.094,0.17-0.135,0.257c4.468,0.369,15.847,1.195,25.44,0.927c6.206-0.174,9.416-0.905,11.076-1.583
					C484.471,708.604,483.756,704.797,482.999,702.109z"/>
			</g>
			
				<linearGradient id="SVGID_00000157310150578466634460000005289998359959270055_" gradientUnits="userSpaceOnUse" x1="6572.9658" y1="676.8356" x2="6568.1201" y2="719.1243" gradientTransform="matrix(1 0 0 1 -6096.875 0)">
				<stop  offset="0" style="stop-color:#F9B776"/>
				<stop  offset="1" style="stop-color:#F47960"/>
			</linearGradient>
			<path style="fill:url(#SVGID_00000157310150578466634460000005289998359959270055_);" d="M469.429,687.863l2.38,11.457
				c0.174,0.839,0.819,1.468,1.601,1.542c0.956,0.09,2.318,0.143,3.687-0.059c1.228-0.18,2.083-1.428,1.865-2.767l-1.654-10.173
				H469.429z"/>
			<g>
				
					<linearGradient id="SVGID_00000042722556145946935570000013448633355733125534_" gradientUnits="userSpaceOnUse" x1="6645.8105" y1="696.6678" x2="6553.5244" y2="769.1312" gradientTransform="matrix(1 0 0 1 -6096.875 0)">
					<stop  offset="0" style="stop-color:#2B3582"/>
					<stop  offset="1" style="stop-color:#150E42"/>
				</linearGradient>
				<path style="fill:url(#SVGID_00000042722556145946935570000013448633355733125534_);" d="M518.739,715.174
					c-6.206-0.174-9.416-0.905-11.075-1.583c-0.004,0.617,0,1.245,0.02,1.896c0.022,0.695,0.536,1.25,1.17,1.246l34.075-0.22
					c1.087-0.007,1.723-1.268,1.252-2.265C539.711,714.617,528.333,715.443,518.739,715.174z"/>
				
					<linearGradient id="SVGID_00000062904566968429639030000004790860709749712294_" gradientUnits="userSpaceOnUse" x1="6607.2192" y1="711.5798" x2="6683.2686" y2="686.5042" gradientTransform="matrix(1 0 0 1 -6096.875 0)">
					<stop  offset="0" style="stop-color:#2B3582"/>
					<stop  offset="1" style="stop-color:#150E42"/>
				</linearGradient>
				<path style="fill:url(#SVGID_00000062904566968429639030000004790860709749712294_);" d="M544.179,714.248
					c-0.041-0.087-0.076-0.175-0.135-0.257c-3.009-4.205-10.674-12.578-25.819-16.209l-7.265-0.229c0,0-3.235,5.623-3.296,16.039
					c1.659,0.678,4.869,1.409,11.075,1.583C528.333,715.443,539.711,714.617,544.179,714.248z"/>
			</g>
			
				<linearGradient id="SVGID_00000119110373820053228490000006361326772163062969_" gradientUnits="userSpaceOnUse" x1="6612.4365" y1="681.3582" x2="6607.5908" y2="723.6472" gradientTransform="matrix(1 0 0 1 -6096.875 0)">
				<stop  offset="0" style="stop-color:#F9B776"/>
				<stop  offset="1" style="stop-color:#F47960"/>
			</linearGradient>
			<path style="fill:url(#SVGID_00000119110373820053228490000006361326772163062969_);" d="M509.613,686.541
				c0.081,0.541,1.077,8.773,1.462,11.964c0.092,0.758,0.641,1.345,1.333,1.428c1.237,0.148,3.239,0.282,4.991-0.077
				c0.945-0.194,1.629-1.101,1.629-2.157v-12.921L509.613,686.541z"/>
			
				<linearGradient id="SVGID_00000180334139335333548440000007534986886907053473_" gradientUnits="userSpaceOnUse" x1="6588.4097" y1="557.6167" x2="6581.2251" y2="757.3472" gradientTransform="matrix(1 0 0 1 -6096.875 0)">
				<stop  offset="0" style="stop-color:#2C759E"/>
				<stop  offset="1" style="stop-color:#051042"/>
			</linearGradient>
			<path style="fill:url(#SVGID_00000180334139335333548440000007534986886907053473_);" d="M503.784,536.328
				c0,0,17.524,66.597,17.207,150.404c-0.006,1.528-1.078,2.847-2.574,3.162c-2.203,0.464-5.442,1.015-8.123,0.94
				c-1.431-0.04-2.628-1.102-2.869-2.513c-2.457-14.409-16.558-95.585-24.592-108.764c0,0-5.286,72.299-3.596,109.808
				c0.042,0.933-0.641,1.742-1.568,1.849c-1.407,0.163-3.657,0.286-6.522-0.018c-1.087-0.116-1.965-0.937-2.12-2.02
				c-1.75-12.195-11.824-84.785-11.396-137.076c0.024-2.949,7.798-15.771,7.798-15.771H503.784z"/>
			
				<linearGradient id="SVGID_00000109022837600729540840000008214898775173712303_" gradientUnits="userSpaceOnUse" x1="527.9625" y1="419.9668" x2="414.3583" y2="579.6481">
				<stop  offset="0" style="stop-color:#FDF53F"/>
				<stop  offset="1" style="stop-color:#D93C65"/>
			</linearGradient>
			<path style="fill:url(#SVGID_00000109022837600729540840000008214898775173712303_);" d="M468.257,433.26
				c0,0-31.067-4.486-22.628,34.838c8.439,39.324,13.95,59.98,15.539,76.265c5.561,3.575,41.204-0.027,42.58-0.701
				c1.377-0.674,1.895,0.837,1.806-6.182c-0.089-7.018,11.497-63.782,12.434-67.132c0.937-3.35,28.531,38.014,24.559,13.512
				c-3.972-24.502-24.189-55.763-46.255-53.836C474.226,431.952,468.257,433.26,468.257,433.26z"/>
			
				<linearGradient id="SVGID_00000163058219253177886860000018008554585515512218_" gradientUnits="userSpaceOnUse" x1="561.0859" y1="443.5322" x2="447.4822" y2="603.2128">
				<stop  offset="0" style="stop-color:#FDF53F"/>
				<stop  offset="1" style="stop-color:#D93C65"/>
			</linearGradient>
			<path style="fill:url(#SVGID_00000163058219253177886860000018008554585515512218_);" d="M517.988,470.349
				c0,0,23.765,28.136,26.943,28.136c3.178,0,5.827-10.554,5.827-10.554l-16.385-28.052L517.988,470.349z"/>
			<g>
				<g>
					
						<linearGradient id="SVGID_00000119094329779449522680000015125369392057853109_" gradientUnits="userSpaceOnUse" x1="6583.6704" y1="406.0085" x2="6565.1694" y2="485.9605" gradientTransform="matrix(1 0 0 1 -6096.875 0)">
						<stop  offset="0" style="stop-color:#F9B776"/>
						<stop  offset="1" style="stop-color:#F47960"/>
					</linearGradient>
					<path style="fill:url(#SVGID_00000119094329779449522680000015125369392057853109_);" d="M472.815,412.234l-2.278,23.272
						c0,0,13.092,3.943,22.614-2.775l-6.694-21.15L472.815,412.234z"/>
				</g>
				<g>
					
						<linearGradient id="SVGID_00000029751888578088112920000009277830120567563404_" gradientUnits="userSpaceOnUse" x1="6682.9888" y1="-465.1698" x2="6645.4951" y2="-436.4814" gradientTransform="matrix(0.9808 0.1949 -0.1949 0.9808 -6149.2329 -443.1462)">
						<stop  offset="0" style="stop-color:#F9B776"/>
						<stop  offset="1" style="stop-color:#F47960"/>
					</linearGradient>
					<path style="fill:url(#SVGID_00000029751888578088112920000009277830120567563404_);" d="M497.34,389.854
						c0,0,3.497,16.055,2.388,23.897c-1.109,7.842-0.438,13.207-9.716,12.987c-9.278-0.22-15.946-6.189-18.503-14.728
						c0,0-4.047-13.179-1.64-17.769C472.275,389.652,497.34,389.854,497.34,389.854z"/>
					
						<linearGradient id="SVGID_00000141457554018428773470000004118739566703177646_" gradientUnits="userSpaceOnUse" x1="6656.5947" y1="-487.8849" x2="6691.5146" y2="-442.9254" gradientTransform="matrix(0.9808 0.1949 -0.1949 0.9808 -6149.2329 -443.1462)">
						<stop  offset="0" style="stop-color:#2B3582"/>
						<stop  offset="1" style="stop-color:#150E42"/>
					</linearGradient>
					<path style="fill:url(#SVGID_00000141457554018428773470000004118739566703177646_);" d="M475.676,407.064l0.555-0.124
						c0.707-0.157,1.138-0.876,0.938-1.572c-0.779-2.695-2.132-8.784,1.313-9.457c4.439-0.868,21.356-0.953,26.01-6.025
						c4.473-4.875,2.908-12.625-1.177-15.553c-0.273-0.196-0.649-0.158-0.861,0.103l-0.515,0.634
						c-0.352,0.434-1.053,0.218-1.101-0.339l0,0c-0.046-0.535-0.699-0.766-1.066-0.375c-1.421,1.512-4.888,3.731-12.959,3.621
						c-11.469-0.156-19.674,2.867-21.375,10.476c-0.108,0.483-0.678,0.651-1.043,0.316c-0.718-0.66-1.979-1.154-4.018-0.032
						c-3.546,1.951-3.62,8.826,1.958,15.601c0.265,0.322,0.164,0.815-0.223,0.97c-1.364,0.546-3.536,2.059,0.633,5.479
						c4.312,3.537,7.957,4.042,9.389,4.089c0.356,0.012,0.645-0.278,0.638-0.635l-0.145-7.014c-0.008-0.397,0.353-0.7,0.742-0.622
						L475.676,407.064z"/>
					
						<linearGradient id="SVGID_00000069396604306556146670000006880355884797120641_" gradientUnits="userSpaceOnUse" x1="6678.3384" y1="-471.2477" x2="6640.8442" y2="-442.5592" gradientTransform="matrix(0.9808 0.1949 -0.1949 0.9808 -6149.2329 -443.1462)">
						<stop  offset="0" style="stop-color:#F9B776"/>
						<stop  offset="1" style="stop-color:#F47960"/>
					</linearGradient>
					<path style="fill:url(#SVGID_00000069396604306556146670000006880355884797120641_);" d="M475.673,408.538
						c0,0-0.578-9.927-5.336-8.121c-4.758,1.806,0.095,11.013,3.427,12.042L475.673,408.538z"/>
				</g>
			</g>
			
				<linearGradient id="SVGID_00000001644555646529149310000015415899655973574795_" gradientUnits="userSpaceOnUse" x1="586.3829" y1="432.1778" x2="472.8289" y2="541.5445">
				<stop  offset="0" style="stop-color:#F9B776"/>
				<stop  offset="1" style="stop-color:#F47960"/>
			</linearGradient>
			<path style="fill:url(#SVGID_00000001644555646529149310000015415899655973574795_);" d="M571.004,432.147
				c-0.393-6.828-3.516-10.892-6.685-13.287c-0.584-0.441-1.168-0.834-1.752-1.168c-2.765-1.609-5.136-2.038-5.136-2.038
				c-1.942-2.979-2.109,17.493-2.109,17.493l0.012,0.024c-0.191,0.238-0.37,0.488-0.536,0.739c-0.048-0.453-0.048-0.953,0.012-1.49
				c0.405-3.777-2.479-4.493-2.479-3.599c0,0.894-1.192,6.614-1.573,8.902c-0.357,2.145,5.899,10.141,6.661,11.106
				c0,0.012,0.012,0.024,0.012,0.024c0.036,0.143,0.06,0.226,0.06,0.226s-15.11,48.512-13.501,49.406
				c0.822,0.465,11.559,8.937,15.885,4.374c3.944-4.183,6.935-46.582,7.424-53.934c0,0,2.788-1.907,3.551-9.843
				c0.012-0.024,0.012-0.036,0.012-0.06c0.095-0.393,0.143-0.715,0.143-0.965c0-0.131-0.012-0.274-0.036-0.417
				C571.075,436.043,571.087,434.208,571.004,432.147z"/>
			
				<linearGradient id="SVGID_00000047046928336445151260000014153396958056485822_" gradientUnits="userSpaceOnUse" x1="500.6724" y1="400.3705" x2="387.4091" y2="559.5726">
				<stop  offset="0" style="stop-color:#FDF53F"/>
				<stop  offset="1" style="stop-color:#D93C65"/>
			</linearGradient>
			<path style="fill:url(#SVGID_00000047046928336445151260000014153396958056485822_);" d="M458.422,434.194
				c-1.047-0.956-36.422,5.198-36.422,73.122c0,25.025,0,25.025,0,25.025l13.776,0.798l16.286-57.211
				C452.061,475.928,467.961,442.898,458.422,434.194z"/>
			
				<linearGradient id="SVGID_00000105415188906195895890000009853766956667525009_" gradientUnits="userSpaceOnUse" x1="475.977" y1="511.9667" x2="349.3163" y2="662.0831">
				<stop  offset="0" style="stop-color:#F9B776"/>
				<stop  offset="1" style="stop-color:#F47960"/>
			</linearGradient>
			<path style="fill:url(#SVGID_00000105415188906195895890000009853766956667525009_);" d="M420.952,532.34l14.3,0.798
				l3.195,38.095c0,0,3.122,3.087,2.959,10.083s-0.907,7.696-1.956,6.778c-1.049-0.918-0.787-4.592-2.23-5.772
				c-1.443-1.181-2.361,3.398-1.181,6.094c1.181,2.696,5.641,15.683,1.312,11.617c-4.329-4.067-8.134-10.888-8.396-17.054
				c-0.262-6.166,1.443-10.757,1.443-10.757L420.952,532.34z"/>
		</g>
	</g>
	<g>
		<g>
			
				<linearGradient id="SVGID_00000077284138370861847250000010689363999997889163_" gradientUnits="userSpaceOnUse" x1="-3136.4482" y1="-1365.4225" x2="-3201.4153" y2="-1404.7964" gradientTransform="matrix(0.9652 -0.2618 0.0659 0.9257 3896.7605 631.6094)">
				<stop  offset="0" style="stop-color:#53D8FF"/>
				<stop  offset="1" style="stop-color:#3840F7"/>
			</linearGradient>
			<polygon style="fill:url(#SVGID_00000077284138370861847250000010689363999997889163_);" points="733.865,168.099 
				735.367,182.71 724.826,177.445 			"/>
			
				<linearGradient id="SVGID_00000147211566309584080990000003125777934979632827_" gradientUnits="userSpaceOnUse" x1="-3172.5054" y1="-1379.9795" x2="-3246.8501" y2="-1458.5901" gradientTransform="matrix(0.9652 -0.2618 0.0659 0.9257 3896.7605 631.6094)">
				<stop  offset="0" style="stop-color:#53D8FF"/>
				<stop  offset="1" style="stop-color:#3840F7"/>
			</linearGradient>
			<path style="fill:url(#SVGID_00000147211566309584080990000003125777934979632827_);" d="M667.302,166.466l43.014,30.554
				c0.823,0.585,1.85,0.81,2.842,0.622c0.993-0.187,1.866-0.771,2.42-1.616l29.05-44.343c0.333-0.508,0.324-1.166-0.022-1.665
				c-0.346-0.499-0.96-0.738-1.552-0.605L667.302,166.466z"/>
			
				<linearGradient id="SVGID_00000079488291042674261200000008168100045135154818_" gradientUnits="userSpaceOnUse" x1="-3141.1921" y1="-1366.0779" x2="-3201.8804" y2="-1402.8586" gradientTransform="matrix(0.9652 -0.2618 0.0659 0.9257 3896.7605 631.6094)">
				<stop  offset="0" style="stop-color:#53D8FF"/>
				<stop  offset="1" style="stop-color:#3840F7"/>
			</linearGradient>
			<polygon style="fill:url(#SVGID_00000079488291042674261200000008168100045135154818_);" points="733.861,168.101 
				667.302,166.466 729.195,175.272 729.784,179.306 			"/>
			
				<linearGradient id="SVGID_00000054264894173337580960000013670343774316704387_" gradientUnits="userSpaceOnUse" x1="550.4479" y1="-1175.2986" x2="578.1802" y2="-1183.3308" gradientTransform="matrix(-0.9652 0.2618 0.2618 0.9652 1583.7781 1169.4951)">
				<stop  offset="0" style="stop-color:#53D8FF"/>
				<stop  offset="1" style="stop-color:#3840F7"/>
			</linearGradient>
			<polygon style="fill:url(#SVGID_00000054264894173337580960000013670343774316704387_);" points="726.396,179.502 
				735.367,182.71 729.195,175.272 			"/>
		</g>
		<g>
			<path style="fill:#CE41A4;" d="M742.724,184.316c0,0,0.295,0.074,0.738,0.185c0.452,0.102,1.055,0.237,1.657,0.373
				c1.211,0.259,2.431,0.48,2.431,0.48c0.414,0.075,0.689,0.471,0.614,0.885c-0.075,0.414-0.474,0.689-0.888,0.614
				c0,0-1.24-0.223-2.474-0.486c-0.617-0.138-1.234-0.277-1.696-0.38c-0.467-0.116-0.778-0.194-0.778-0.194
				c-0.409-0.102-0.658-0.517-0.556-0.926c0.102-0.409,0.517-0.658,0.926-0.556h0L742.724,184.316z"/>
			<path style="fill:#CE41A4;" d="M752.436,186.128l4.968,0.559c0.415,0.047,0.714,0.422,0.668,0.837
				c-0.047,0.415-0.421,0.715-0.837,0.668l-4.969-0.555c-0.417-0.047-0.717-0.422-0.67-0.839
				C751.643,186.382,752.019,186.081,752.436,186.128L752.436,186.128z"/>
			<path style="fill:#CE41A4;" d="M762.326,187.027l4.998,0.124c0.415,0.01,0.744,0.355,0.734,0.77
				c-0.01,0.415-0.355,0.744-0.77,0.734l-4.998-0.119c-0.417-0.01-0.747-0.356-0.737-0.772
				C761.563,187.346,761.909,187.017,762.326,187.027L762.326,187.027z"/>
			<path style="fill:#CE41A4;" d="M772.27,187c0,0,1.24-0.047,2.479-0.117c1.236-0.1,2.473-0.189,2.473-0.189l0.019,0.004
				c0.412-0.034,0.772,0.276,0.806,0.688c0.033,0.412-0.272,0.774-0.684,0.807c0,0-1.255,0.104-2.51,0.207
				c-1.256,0.072-2.513,0.145-2.513,0.145c-0.413,0.024-0.895-0.292-0.919-0.706c-0.024-0.414,0.579-0.792,0.579-0.816V187H772.27z"
				/>
			<path style="fill:#CE41A4;" d="M782.146,186c0,0,1.227-0.12,2.449-0.336c1.221-0.211,2.435-0.432,2.435-0.432
				c0.402-0.083,0.795,0.191,0.878,0.592c0.083,0.402-0.178,0.803-0.579,0.885c0,0-1.235,0.259-2.476,0.475
				c-1.24,0.22-2.486,0.404-2.486,0.404c-0.407,0.062-0.787-0.275-0.849-0.682S781.734,186,782.14,186H782.146z"/>
			<path style="fill:#CE41A4;" d="M791.852,184.128c0,0,1.198-0.317,2.384-0.676c1.187-0.354,2.36-0.751,2.36-0.751
				c0.386-0.13,0.806,0.077,0.936,0.463c0.13,0.386-0.079,0.806-0.465,0.937c0,0-1.195,0.405-2.404,0.767
				c-1.206,0.366-2.425,0.69-2.425,0.69l-0.005,0.001c-0.395,0.105-0.801-0.13-0.906-0.526
				C791.221,184.639,791.456,184.233,791.852,184.128L791.852,184.128z"/>
			<path style="fill:#CE41A4;" d="M801.232,180.97c0,0,1.145-0.47,2.272-0.983c1.128-0.509,2.234-1.062,2.234-1.062
				c0.362-0.181,0.803-0.034,0.984,0.328c0.181,0.363,0.032,0.804-0.33,0.985c0,0-1.13,0.566-2.281,1.087
				c-1.147,0.525-2.315,1.005-2.315,1.005l-0.006,0.002c-0.376,0.155-0.806-0.025-0.961-0.401
				C800.676,181.555,800.855,181.125,801.232,180.97L801.232,180.97z"/>
			<path style="fill:#CE41A4;" d="M810.068,176.571c0,0,1.06-0.662,2.12-1.324l0.396-0.247c0.121-0.08,0.24-0.158,0.355-0.234
				c0.242-0.164,0.469-0.318,0.663-0.449c0.388-0.263,0.647-0.438,0.647-0.438c0.333-0.226,0.787-0.139,1.013,0.195
				c0.226,0.334,0.138,0.787-0.195,1.013c0,0-0.259,0.176-0.646,0.439c-0.194,0.132-0.42,0.285-0.662,0.45
				c-0.129,0.085-0.263,0.174-0.399,0.263l-0.395,0.247c-1.059,0.663-2.119,1.327-2.119,1.327c-0.342,0.214-0.794,0.111-1.008-0.232
				C809.621,177.237,809.724,176.786,810.068,176.571L810.068,176.571z"/>
			<path style="fill:#CE41A4;" d="M818.239,170.959l3.919-3.104c0.314-0.248,0.769-0.196,1.018,0.118
				c0.248,0.314,0.196,0.769-0.118,1.018l-3.916,3.108c-0.314,0.249-0.772,0.197-1.021-0.117
				C817.871,171.667,817.924,171.21,818.239,170.959L818.239,170.959z"/>
			<path style="fill:#CE41A4;" d="M825.932,164.651l3.696-3.362c0.294-0.268,0.749-0.247,1.017,0.047
				c0.268,0.294,0.247,0.749-0.047,1.017l-3.692,3.366c-0.295,0.269-0.751,0.248-1.02-0.047
				C825.616,165.377,825.637,164.92,825.932,164.651L825.932,164.651z"/>
			<path style="fill:#CE41A4;" d="M833.157,157.828l3.418-3.651c0.269-0.289,0.722-0.304,1.011-0.035
				c0.289,0.27,0.304,0.722,0.034,1.011l-3.414,3.654c-0.27,0.29-0.724,0.306-1.014,0.036c-0.29-0.27-0.306-0.724-0.036-1.014
				L833.157,157.828z"/>
			<path style="fill:#CE41A4;" d="M839.763,150.402c0,0,0.774-0.968,1.51-1.964c0.74-0.992,1.436-2.013,1.436-2.013
				c0.221-0.324,0.663-0.408,0.987-0.187c0.324,0.221,0.407,0.664,0.186,0.989c0,0-0.711,1.046-1.466,2.059
				c-0.749,1.015-1.536,2.001-1.536,2.001l-0.004,0.005c-0.246,0.308-0.694,0.358-1.002,0.113
				C839.568,151.159,839.517,150.71,839.763,150.402L839.763,150.402z"/>
			<path style="fill:#CE41A4;" d="M845.3,142.233c0,0,0.598-1.076,1.118-2.19c0.528-1.108,0.96-2.25,0.96-2.25
				c0.138-0.365,0.545-0.548,0.91-0.41s0.547,0.548,0.409,0.912c0,0-0.452,1.198-1,2.35c-0.537,1.154-1.154,2.265-1.154,2.265
				l-0.006,0.011c-0.19,0.342-0.621,0.465-0.963,0.276C845.234,143.007,845.11,142.576,845.3,142.233L845.3,142.233z"/>
			<path style="fill:#CE41A4;" d="M848.663,133.126c0,0,0.042-0.301,0.104-0.752c0.054-0.448,0.104-1.047,0.116-1.645
				c0.036-1.2-0.142-2.379-0.142-2.379c-0.058-0.383,0.206-0.74,0.589-0.798c0.383-0.058,0.74,0.206,0.798,0.589l0.001,0.008
				c0,0,0.196,1.302,0.158,2.607c-0.012,0.652-0.065,1.3-0.123,1.783c-0.065,0.478-0.109,0.797-0.109,0.797
				c-0.053,0.385-0.408,0.654-0.793,0.601c-0.385-0.053-0.654-0.408-0.601-0.792l0-0.001L848.663,133.126z"/>
			<path style="fill:#CE41A4;" d="M847.241,123.877c0,0-0.141-0.262-0.379-0.642c-0.116-0.185-0.268-0.415-0.418-0.626
				c-0.168-0.234-0.321-0.413-0.525-0.623c-0.775-0.806-1.845-1.306-1.845-1.306c-0.348-0.163-0.499-0.577-0.336-0.925
				c0.162-0.346,0.572-0.497,0.919-0.339l0.039,0.018c0,0,1.238,0.565,2.217,1.573c0.235,0.236,0.486,0.537,0.659,0.779
				c0.191,0.266,0.339,0.494,0.473,0.706c0.261,0.415,0.416,0.703,0.416,0.703l0.011,0.019c0.183,0.34,0.056,0.763-0.283,0.946
				C847.848,124.344,847.424,124.217,847.241,123.877L847.241,123.877z"/>
			<path style="fill:#CE41A4;" d="M839.517,119.488c0,0-0.302-0.021-0.756-0.052c-0.451-0.024-1.055-0.032-1.659-0.01
				c-1.209,0.036-2.405,0.232-2.405,0.232c-0.377,0.062-0.733-0.194-0.795-0.571c-0.062-0.377,0.194-0.733,0.571-0.795l0.008-0.001
				c0,0,1.277-0.211,2.57-0.251c0.646-0.024,1.293-0.016,1.778,0.01c0.482,0.033,0.803,0.055,0.803,0.055
				c0.382,0.026,0.671,0.358,0.645,0.74c-0.026,0.382-0.357,0.671-0.74,0.645h-0.001L839.517,119.488z"/>
			<path style="fill:#CE41A4;" d="M830.119,121.02c0,0-0.293,0.137-0.664,0.343c-0.387,0.213-0.883,0.525-1.33,0.887
				c-0.448,0.36-0.835,0.772-1.082,1.103c-0.121,0.165-0.216,0.313-0.275,0.408c-0.07,0.118-0.109,0.185-0.109,0.185
				c-0.193,0.326-0.615,0.435-0.941,0.241c-0.327-0.193-0.435-0.614-0.242-0.941c0,0,0.04-0.067,0.109-0.185
				c0.084-0.138,0.201-0.32,0.357-0.533c0.313-0.421,0.789-0.924,1.316-1.349c0.526-0.426,1.091-0.781,1.525-1.021
				c0.449-0.248,0.724-0.375,0.724-0.375l0.03-0.014c0.346-0.159,0.755-0.008,0.914,0.337
				C830.613,120.453,830.465,120.861,830.119,121.02z"/>
			<path style="fill:#CE41A4;" d="M825.508,128.346c0,0,0.003,0.078,0.009,0.215c0.007,0.145,0.015,0.295,0.04,0.52
				c0.042,0.434,0.144,1.012,0.297,1.581c0.299,1.142,0.832,2.224,0.832,2.224c0.167,0.338,0.028,0.747-0.31,0.914
				c-0.338,0.166-0.747,0.028-0.914-0.311l-0.009-0.018c0,0-0.58-1.17-0.918-2.452c-0.173-0.638-0.289-1.295-0.339-1.794
				c-0.027-0.241-0.041-0.481-0.047-0.609c-0.006-0.137-0.009-0.215-0.009-0.215c-0.015-0.378,0.279-0.697,0.657-0.712
				C825.174,127.674,825.493,127.968,825.508,128.346L825.508,128.346z"/>
			<path style="fill:#CE41A4;" d="M829.274,136.975c0,0,0.192,0.241,0.479,0.602c0.289,0.357,0.686,0.824,1.096,1.279
				c0.818,0.914,1.706,1.76,1.706,1.76c0.271,0.258,0.282,0.687,0.024,0.958c-0.258,0.271-0.687,0.282-0.958,0.024l-0.004-0.003
				c0,0-0.925-0.878-1.776-1.828c-0.428-0.473-0.841-0.959-1.142-1.33c-0.297-0.372-0.495-0.621-0.495-0.621
				c-0.234-0.293-0.186-0.721,0.107-0.956c0.294-0.234,0.721-0.186,0.956,0.107l0,0L829.274,136.975z"/>
			<path style="fill:#CE41A4;" d="M836.319,143.755c0,0,0.992,0.725,2.036,1.38c1.037,0.661,2.117,1.252,2.117,1.252
				c0.326,0.179,0.446,0.588,0.267,0.914c-0.179,0.326-0.591,0.444-0.917,0.265c0,0-1.115-0.609-2.188-1.291
				c-0.537-0.339-1.066-0.693-1.457-0.965c-0.388-0.275-0.646-0.458-0.646-0.458c-0.305-0.215-0.377-0.637-0.161-0.941
				c0.215-0.305,0.637-0.377,0.942-0.161C836.313,143.75,836.318,143.753,836.319,143.755z"/>
			<path style="fill:#CE41A4;" d="M844.907,148.527c0,0,1.137,0.48,2.3,0.901c1.159,0.426,2.339,0.794,2.339,0.794
				c0.352,0.11,0.549,0.485,0.439,0.837c-0.11,0.352-0.488,0.548-0.84,0.438c0,0-1.207-0.376-2.396-0.811
				c-1.189-0.428-2.357-0.92-2.357-0.92l-0.006-0.003c-0.341-0.144-0.502-0.537-0.358-0.878
				C844.172,148.544,844.565,148.383,844.907,148.527L844.907,148.527z"/>
			<path style="fill:#CE41A4;" d="M854.319,151.519c0,0,1.206,0.281,2.424,0.516c1.216,0.239,2.44,0.435,2.44,0.435
				c0.362,0.058,0.609,0.398,0.55,0.76c-0.058,0.362-0.4,0.608-0.762,0.55c0,0-1.245-0.198-2.483-0.44
				c-1.237-0.238-2.467-0.523-2.467-0.523l-0.005-0.001c-0.358-0.083-0.581-0.441-0.498-0.799
				C853.602,151.659,853.96,151.436,854.319,151.519L854.319,151.519z"/>
			<path style="fill:#CE41A4;" d="M864.092,153.12c0,0,1.245,0.11,2.49,0.219l0.465,0.041c0.148,0.01,0.293,0.019,0.433,0.029
				c0.292,0.018,0.565,0.035,0.799,0.049c0.468,0.029,0.78,0.048,0.78,0.048c0.363,0.022,0.64,0.335,0.617,0.699
				c-0.023,0.363-0.335,0.64-0.698,0.617c0,0-0.312-0.019-0.78-0.048c-0.234-0.014-0.507-0.031-0.799-0.049
				c-0.152-0.01-0.309-0.02-0.468-0.031l-0.465-0.041c-1.245-0.108-2.491-0.217-2.491-0.217c-0.364-0.032-0.633-0.352-0.602-0.716
				C863.407,153.357,863.727,153.088,864.092,153.12L864.092,153.12z"/>
			<path style="fill:#CE41A4;" d="M874.014,154c0,0,1.241-0.19,2.483-0.229c1.241-0.035,2.481-0.199,2.481-0.199
				c0.361-0.02,0.67,0.208,0.69,0.569c0.021,0.361-0.257,0.647-0.618,0.667c0,0-1.256,0.061-2.514,0.097
				c-1.257,0.04-2.516,0.038-2.516,0.038c-0.363,0.003-0.659-0.103-0.663-0.466c-0.003-0.363,0.288-0.477,0.651-0.477H874.014z"/>
			<path style="fill:#CE41A4;" d="M883.914,153.082l4.959-0.64c0.356-0.046,0.682,0.206,0.728,0.562
				c0.046,0.356-0.205,0.682-0.561,0.728l-4.958,0.644c-0.357,0.046-0.684-0.206-0.731-0.563
				C883.304,153.455,883.556,153.128,883.914,153.082L883.914,153.082z"/>
			<path style="fill:#CE41A4;" d="M893.743,151.591l4.886-1.063c0.348-0.076,0.692,0.145,0.768,0.493
				c0.076,0.348-0.145,0.692-0.493,0.768l-4.885,1.067c-0.349,0.076-0.694-0.145-0.771-0.494
				C893.172,152.013,893.393,151.667,893.743,151.591L893.743,151.591z"/>
			<path style="fill:#CE41A4;" d="M903.427,149.294l4.798-1.408c0.339-0.1,0.695,0.095,0.795,0.434
				c0.1,0.339-0.095,0.695-0.434,0.795l-4.797,1.412c-0.34,0.1-0.698-0.094-0.798-0.435
				C902.891,149.752,903.085,149.395,903.427,149.294L903.427,149.294z"/>
			<path style="fill:#CE41A4;" d="M912.944,146.348l4.711-1.674c0.331-0.118,0.694,0.055,0.812,0.386
				c0.118,0.331-0.055,0.694-0.386,0.812l-4.71,1.678c-0.332,0.118-0.697-0.055-0.815-0.387
				C912.437,146.831,912.611,146.467,912.944,146.348L912.944,146.348z"/>
			<path style="fill:#CE41A4;" d="M922.303,142.904l4.638-1.868c0.323-0.13,0.691,0.026,0.821,0.35
				c0.13,0.323-0.026,0.691-0.349,0.821l-4.636,1.873c-0.324,0.131-0.694-0.026-0.825-0.35
				C921.821,143.404,921.977,143.035,922.303,142.904L922.303,142.904z"/>
			<path style="fill:#CE41A4;" d="M931.532,139.102l4.584-1.997c0.317-0.138,0.686,0.007,0.825,0.324
				c0.138,0.317-0.007,0.686-0.324,0.824l-4.582,2.001c-0.318,0.139-0.689-0.006-0.828-0.324
				C931.068,139.612,931.213,139.242,931.532,139.102L931.532,139.102z"/>
			<path style="fill:#CE41A4;" d="M940.673,135.071l4.553-2.066c0.313-0.142,0.681-0.003,0.823,0.309
				c0.142,0.313,0.004,0.681-0.309,0.823l-4.551,2.07c-0.314,0.143-0.684,0.004-0.826-0.309
				C940.22,135.583,940.359,135.214,940.673,135.071L940.673,135.071z"/>
			<path style="fill:#CE41A4;" d="M949.772,130.926l4.547-2.078c0.31-0.142,0.676-0.005,0.818,0.305
				c0.142,0.31,0.005,0.676-0.305,0.818l-4.546,2.083c-0.311,0.143-0.679,0.006-0.821-0.305
				C949.324,131.437,949.46,131.069,949.772,130.926L949.772,130.926z"/>
			<path style="fill:#CE41A4;" d="M958.879,126.782l4.567-2.035c0.309-0.138,0.671,0.001,0.809,0.31
				c0.138,0.309-0.001,0.671-0.31,0.809l-4.565,2.039c-0.31,0.139-0.674,0-0.812-0.311
				C958.429,127.284,958.568,126.92,958.879,126.782L958.879,126.782z"/>
			<path style="fill:#CE41A4;" d="M968.045,122.749l4.611-1.934c0.31-0.13,0.666,0.016,0.796,0.325
				c0.13,0.31-0.016,0.665-0.325,0.795l-4.609,1.939c-0.311,0.131-0.668-0.015-0.799-0.326
				C967.587,123.238,967.733,122.88,968.045,122.749L968.045,122.749z"/>
			<path style="fill:#CE41A4;" d="M977.316,118.946l4.676-1.771c0.312-0.118,0.66,0.039,0.778,0.35
				c0.118,0.312-0.039,0.66-0.35,0.778l-4.674,1.776c-0.313,0.119-0.662-0.038-0.781-0.351
				C976.846,119.414,977.003,119.065,977.316,118.946L977.316,118.946z"/>
			<path style="fill:#CE41A4;" d="M986.735,115.5l4.757-1.54c0.315-0.102,0.652,0.071,0.754,0.385
				c0.102,0.314-0.07,0.652-0.385,0.754l-4.755,1.544c-0.316,0.103-0.654-0.07-0.757-0.386
				C986.245,115.942,986.418,115.603,986.735,115.5L986.735,115.5z"/>
			<path style="fill:#CE41A4;" d="M996.329,112.553l4.845-1.234c0.318-0.081,0.641,0.111,0.722,0.429
				c0.081,0.318-0.111,0.641-0.429,0.722l-4.844,1.239c-0.319,0.082-0.644-0.111-0.725-0.43
				C995.817,112.959,996.009,112.634,996.329,112.553L996.329,112.553z"/>
			<path style="fill:#CE41A4;" d="M1006.097,110.259c0,0,0.311-0.058,0.777-0.145c0.462-0.081,1.077-0.188,1.693-0.296
				c1.231-0.215,2.463-0.43,2.463-0.43c0.316-0.055,0.618,0.157,0.673,0.473c0.055,0.315-0.156,0.616-0.471,0.673l-4.911,0.887
				l-0.01,0.002c-0.321,0.058-0.629-0.155-0.687-0.477C1005.566,110.625,1005.778,110.319,1006.097,110.259z"/>
			<path style="fill:#CE41A4;" d="M1016.018,109l4.972-0.688c0.308-0.032,0.583,0.109,0.616,0.416
				c0.032,0.308-0.189,0.542-0.496,0.575l-4.97,0.525c-0.313,0.034-0.595-0.038-0.63-0.352c-0.034-0.313,0.192-0.476,0.505-0.476
				H1016.018z"/>
			<path style="fill:#CE41A4;" d="M1026.019,108c0,0,1.256-0.131,2.512-0.145c1.257-0.018,2.515-0.038,2.515-0.038
				c0.297,0.004,0.535,0.228,0.531,0.526c-0.004,0.297-0.247,0.525-0.545,0.521c0,0-1.242-0.02-2.485,0.003
				c-1.244,0.019-2.486,0.071-2.486,0.071c-0.303,0.013-0.559-0.142-0.573-0.445c-0.013-0.303,0.221-0.493,0.525-0.493H1026.019z"/>
			<path style="fill:#CE41A4;" d="M1036.074,108c0,0,1.255,0.092,2.506,0.229c1.252,0.133,2.499,0.313,2.499,0.313
				c0.283,0.04,0.479,0.302,0.439,0.584c-0.04,0.283-0.301,0.479-0.584,0.439c0,0-1.229-0.172-2.464-0.298
				c-1.236-0.13-2.475-0.215-2.475-0.215c-0.291-0.02-0.51-0.272-0.49-0.562c0.02-0.291,0.272-0.49,0.563-0.49H1036.074z"/>
			<path style="fill:#CE41A4;" d="M1046.046,109l2.74,0.887c0.268,0.065,0.433,0.446,0.368,0.714
				c-0.065,0.268-0.334,0.488-0.602,0.423l-2.743-0.627c-0.272-0.065-0.44-0.544-0.375-0.816c0.065-0.272,0.338-0.58,0.61-0.58
				H1046.046z"/>
		</g>
	</g>
</g>
</svg>
